<svg width="25" height="25" viewBox="0 0 25 25" fill="none" xmlns="http://www.w3.org/2000/svg">
<path d="M1.73611 5.90283H23.2639V19.0973H1.73611V5.90283Z" fill="#5C9E31"/>
<path d="M1.73611 5.90283H23.2639V10.4167H1.73611V5.90283Z" fill="#E27022"/>
<path d="M1.73611 10.4167H23.2639V14.5834H1.73611V10.4167Z" fill="white"/>
<path d="M12.6028 12.1166L13.1944 11.2972L12.7806 12.2194L13.7028 11.8055L12.8833 12.3972L13.8889 12.5L12.8833 12.6028L13.7028 13.1944L12.7806 12.7805L13.1944 13.7028L12.6028 12.8833L12.5 13.8889L12.3972 12.8833L11.8056 13.7028L12.2194 12.7805L11.2972 13.1944L12.1167 12.6028L11.1111 12.5L12.1167 12.3972L11.2972 11.8055L12.2194 12.2194L11.8056 11.2972L12.3972 12.1166L12.5 11.1111L12.6028 12.1166Z" stroke="#1E50A0" stroke-linecap="round" stroke-linejoin="round"/>
<path d="M12.5 14.2361C13.4588 14.2361 14.2361 13.4589 14.2361 12.5C14.2361 11.5412 13.4588 10.7639 12.5 10.7639C11.5412 10.7639 10.7639 11.5412 10.7639 12.5C10.7639 13.4589 11.5412 14.2361 12.5 14.2361Z" stroke="#1E50A0" stroke-linecap="round" stroke-linejoin="round"/>
<path d="M1.73611 5.90283H23.2639V19.0973H1.73611V5.90283Z" stroke="white" stroke-width="2" stroke-linecap="round" stroke-linejoin="round"/>
</svg>
