<svg width="17" height="17" viewBox="0 0 17 17" fill="none" xmlns="http://www.w3.org/2000/svg">
<path d="M7.64835 2.0297C7.88237 1.81944 8.18587 1.70312 8.50047 1.70312C8.81508 1.70312 9.11858 1.81944 9.3526 2.0297L14.0276 6.2304C14.1605 6.34993 14.2668 6.49608 14.3396 6.65936C14.4124 6.82263 14.45 6.99939 14.45 7.17815V13.1749C14.45 13.5131 14.3157 13.8374 14.0766 14.0765C13.8375 14.3156 13.5132 14.4499 13.175 14.4499H11.05C10.7119 14.4499 10.3876 14.3156 10.1485 14.0765C9.90938 13.8374 9.77505 13.5131 9.77505 13.1749V10.1999C9.77505 10.0872 9.73027 9.97908 9.65057 9.89938C9.57087 9.81968 9.46277 9.7749 9.35005 9.7749H7.65005C7.53733 9.7749 7.42923 9.81968 7.34953 9.89938C7.26982 9.97908 7.22505 10.0872 7.22505 10.1999V13.1749C7.22505 13.5131 7.09072 13.8374 6.85161 14.0765C6.6125 14.3156 6.2882 14.4499 5.95005 14.4499H3.82505C3.4869 14.4499 3.1626 14.3156 2.92349 14.0765C2.68438 13.8374 2.55005 13.5131 2.55005 13.1749V7.17815C2.55005 6.8169 2.70305 6.47265 2.97335 6.2304L7.64835 2.0297ZM8.78395 2.6621C8.70596 2.59209 8.60485 2.55337 8.50005 2.55337C8.39525 2.55337 8.29414 2.59209 8.21615 2.6621L3.54115 6.8628C3.49686 6.90256 3.46142 6.95117 3.43711 7.00549C3.4128 7.05982 3.40018 7.11864 3.40005 7.17815V13.1749C3.40005 13.2876 3.44483 13.3957 3.52453 13.4754C3.60423 13.5551 3.71233 13.5999 3.82505 13.5999H5.95005C6.06277 13.5999 6.17087 13.5551 6.25057 13.4754C6.33027 13.3957 6.37505 13.2876 6.37505 13.1749V10.1999C6.37505 9.86175 6.50938 9.53745 6.74849 9.29834C6.9876 9.05923 7.3119 8.9249 7.65005 8.9249H9.35005C9.6882 8.9249 10.0125 9.05923 10.2516 9.29834C10.4907 9.53745 10.625 9.86175 10.625 10.1999V13.1749C10.625 13.2876 10.6698 13.3957 10.7495 13.4754C10.8292 13.5551 10.9373 13.5999 11.05 13.5999H13.175C13.2878 13.5999 13.3959 13.5551 13.4756 13.4754C13.5553 13.3957 13.6 13.2876 13.6 13.1749V7.17815C13.5999 7.11864 13.5873 7.05982 13.563 7.00549C13.5387 6.95117 13.5032 6.90256 13.4589 6.8628L8.78395 2.6621Z" fill="black"/>
</svg>
