<svg width="16" height="16" viewBox="0 0 16 16" fill="none" xmlns="http://www.w3.org/2000/svg">
<g clip-path="url(#clip0_132_101)">
<path d="M13.7812 6.00875V4.72375C13.7812 4.21271 13.5782 3.7226 13.2169 3.36124C12.8555 2.99988 12.3654 2.79688 11.8544 2.79688H9.92688M9.92688 14.3594H11.8544C12.3654 14.3594 12.8555 14.1564 13.2169 13.795C13.5782 13.4336 13.7812 12.9435 13.7812 12.4325V11.1475M2.21875 11.1475V12.4325C2.21875 12.9435 2.42176 13.4336 2.78312 13.795C3.14448 14.1564 3.63459 14.3594 4.14563 14.3594H6.07312M6.07312 2.79688H4.14563C3.89258 2.79687 3.64202 2.84672 3.40824 2.94355C3.17446 3.04038 2.96205 3.18232 2.78312 3.36124C2.60419 3.54017 2.46226 3.75259 2.36542 3.98637C2.26859 4.22015 2.21875 4.47071 2.21875 4.72375V6.00875" stroke="#6B39F4" stroke-width="1.5" stroke-linecap="round" stroke-linejoin="round"/>
<path d="M11.8605 14.3593C11.8605 12.5343 9.82552 11.0505 7.99989 11.0505C6.17489 11.0505 4.13989 12.5336 4.13989 14.3593M7.99989 9.39614C8.28962 9.39614 8.57651 9.33908 8.84419 9.2282C9.11186 9.11733 9.35508 8.95482 9.55995 8.74995C9.76482 8.54508 9.92733 8.30186 10.0382 8.03419C10.1491 7.76651 10.2061 7.47962 10.2061 7.18989C10.2061 6.90016 10.1491 6.61327 10.0382 6.3456C9.92733 6.07792 9.76482 5.83471 9.55995 5.62984C9.35508 5.42497 9.11186 5.26246 8.84419 5.15158C8.57651 5.04071 8.28962 4.98364 7.99989 4.98364C7.41476 4.98364 6.85359 5.21609 6.43984 5.62984C6.02609 6.04359 5.79364 6.60476 5.79364 7.18989C5.79364 7.77503 6.02609 8.33619 6.43984 8.74995C6.85359 9.1637 7.41476 9.39614 7.99989 9.39614Z" stroke="#6B39F4" stroke-width="1.5" stroke-linecap="round" stroke-linejoin="round"/>
</g>
<defs>
<clipPath id="clip0_132_101">
<rect width="15" height="15" fill="white" transform="translate(0.5 0.5)"/>
</clipPath>
</defs>
</svg>
