<svg width="30" height="30" viewBox="0 0 30 30" fill="none" xmlns="http://www.w3.org/2000/svg">
<path fill-rule="evenodd" clip-rule="evenodd" d="M3.75 6.25L6.25 3.75L26.25 23.75L23.75 26.25L3.75 6.25ZM16.25 6.25L17.5 3.75L18.75 6.25L21.25 7.5L18.75 8.75L17.5 11.25L16.25 8.75L13.75 7.5L16.25 6.25ZM6.25 18.75L7.5 16.25L8.75 18.75L11.25 20L8.75 21.25L7.5 23.75L6.25 21.25L3.75 20L6.25 18.75ZM5 11.25L6.25 12.5L5 13.75L3.75 12.5L5 11.25ZM22.5 12.5L23.75 13.75L22.5 15L21.25 13.75L22.5 12.5Z" fill="black"/>
</svg>
