<svg width="16" height="16" viewBox="0 0 16 16" fill="none" xmlns="http://www.w3.org/2000/svg">
<path d="M4.25 1.4375C3.87704 1.4375 3.51935 1.58566 3.25563 1.84938C2.99191 2.1131 2.84375 2.47079 2.84375 2.84375V8C3.08679 7.6756 3.4098 7.41977 3.78125 7.2575V2.84375C3.78125 2.71943 3.83064 2.6002 3.91854 2.51229C4.00645 2.42439 4.12568 2.375 4.25 2.375H8.46875V4.71875C8.46875 5.09171 8.61691 5.4494 8.88063 5.71312C9.14435 5.97684 9.50204 6.125 9.875 6.125H12.2188V13.1562C12.2188 13.2806 12.1694 13.3998 12.0815 13.4877C11.9935 13.5756 11.8743 13.625 11.75 13.625H8.46875C8.46875 13.9667 8.37734 14.2869 8.21797 14.5625H11.75C12.123 14.5625 12.4806 14.4143 12.7444 14.1506C13.0081 13.8869 13.1562 13.5292 13.1562 13.1562V5.57562C13.156 5.20286 13.0078 4.84542 12.7442 4.58188L10.0123 1.84906C9.7486 1.58549 9.39099 1.43746 9.01813 1.4375H4.25ZM12.0247 5.1875H9.875C9.75068 5.1875 9.63145 5.13811 9.54354 5.05021C9.45564 4.9623 9.40625 4.84307 9.40625 4.71875V2.56906L12.0247 5.1875ZM3.07812 9.64062H2.84375C2.53295 9.64062 2.23488 9.76409 2.01511 9.98386C1.79534 10.2036 1.67188 10.5017 1.67188 10.8125V13.625C1.67188 13.9358 1.79534 14.2339 2.01511 14.4536C2.23488 14.6734 2.53295 14.7969 2.84375 14.7969H6.59375C6.90455 14.7969 7.20262 14.6734 7.42239 14.4536C7.64216 14.2339 7.76562 13.9358 7.76562 13.625V10.8125C7.76562 10.5017 7.64216 10.2036 7.42239 9.98386C7.20262 9.76409 6.90455 9.64062 6.59375 9.64062H6.35938V9.40625C6.35938 9.1908 6.31694 8.97746 6.23449 8.77841C6.15204 8.57936 6.03119 8.3985 5.87885 8.24615C5.7265 8.09381 5.54564 7.97296 5.34659 7.89051C5.14754 7.80806 4.9342 7.76562 4.71875 7.76562C4.5033 7.76562 4.28996 7.80806 4.09091 7.89051C3.89186 7.97296 3.711 8.09381 3.55865 8.24615C3.40631 8.3985 3.28546 8.57936 3.20301 8.77841C3.12056 8.97746 3.07812 9.1908 3.07812 9.40625V9.64062ZM4.01562 9.40625C4.01562 9.21977 4.0897 9.04093 4.22157 8.90907C4.35343 8.7772 4.53227 8.70312 4.71875 8.70312C4.90523 8.70312 5.08407 8.7772 5.21593 8.90907C5.3478 9.04093 5.42188 9.21977 5.42188 9.40625V9.64062H4.01562V9.40625ZM5.65625 12.2188C5.65625 12.4674 5.55748 12.7058 5.38166 12.8817C5.20585 13.0575 4.96739 13.1562 4.71875 13.1562C4.47011 13.1562 4.23165 13.0575 4.05584 12.8817C3.88002 12.7058 3.78125 12.4674 3.78125 12.2188C3.78125 11.9701 3.88002 11.7317 4.05584 11.5558C4.23165 11.38 4.47011 11.2812 4.71875 11.2812C4.96739 11.2812 5.20585 11.38 5.38166 11.5558C5.55748 11.7317 5.65625 11.9701 5.65625 12.2188Z" fill="#6B39F4"/>
</svg>
