<svg width="41" height="41" viewBox="0 0 41 41" fill="none" xmlns="http://www.w3.org/2000/svg">
<path d="M15.9505 18.5712C16.1445 18.4592 16.3056 18.298 16.4176 18.104C16.5296 17.91 16.5886 17.6899 16.5885 17.4658V5.98145C16.5874 5.778 16.5376 5.57778 16.4434 5.39748C16.3491 5.21718 16.2132 5.06203 16.0468 4.94496C15.8804 4.8279 15.6884 4.75231 15.4869 4.72452C15.2853 4.69672 15.0801 4.71751 14.8882 4.78516C11.1637 6.10333 8.03158 8.70682 6.05483 12.1276C4.07809 15.5484 3.38638 19.5621 4.10406 23.4473C4.14126 23.6482 4.22616 23.8372 4.35162 23.9985C4.47708 24.1597 4.63943 24.2885 4.82502 24.374C4.99234 24.452 5.17475 24.4923 5.35936 24.492C5.58333 24.4921 5.80337 24.4333 5.99739 24.3214L15.9505 18.5712ZM14.0364 7.91465V16.7289L6.39934 21.136C6.3802 20.8952 6.3802 20.6527 6.3802 20.4167C6.38246 17.8301 7.09844 15.2943 8.44929 13.0884C9.80014 10.8826 11.7335 9.0923 14.0364 7.91465ZM20.4167 3.82812C20.0782 3.82813 19.7537 3.96256 19.5144 4.20187C19.2751 4.44117 19.1406 4.76574 19.1406 5.10417V19.7499L6.57001 27.0728C6.42414 27.1574 6.29647 27.27 6.19438 27.4042C6.0923 27.5384 6.01782 27.6915 5.97525 27.8546C5.93269 28.0178 5.92287 28.1878 5.94639 28.3547C5.9699 28.5217 6.02626 28.6823 6.11223 28.8274C7.58559 31.3321 9.69106 33.4058 12.2179 34.841C14.7447 36.2761 17.6041 37.0223 20.51 37.0049C23.4159 36.9875 26.2662 36.207 28.7756 34.7416C31.285 33.2763 33.3654 31.1774 34.8086 28.6552C36.2518 26.133 37.0071 23.2759 36.999 20.37C36.9908 17.4641 36.2194 14.6113 34.762 12.0972C33.3047 9.58319 31.2124 7.49608 28.6948 6.04485C26.1772 4.59363 23.3226 3.82921 20.4167 3.82812ZM20.4167 34.4531C18.1891 34.4472 15.9946 33.9139 14.0126 32.897C12.0307 31.8801 10.3176 30.4085 9.01363 28.6025L21.0595 21.5842C21.2533 21.4724 21.4142 21.3115 21.5262 21.1178C21.6382 20.924 21.6973 20.7042 21.6975 20.4805V6.43763C25.2966 6.76417 28.6311 8.46629 31.0067 11.1896C33.3823 13.9129 34.6161 17.4476 34.451 21.0577C34.286 24.6678 32.7349 28.0752 30.1206 30.5704C27.5064 33.0656 24.0305 34.4564 20.4167 34.4531Z" fill="#6B39F4"/>
</svg>
