<svg width="18" height="18" viewBox="0 0 18 18" fill="none" xmlns="http://www.w3.org/2000/svg">
<path d="M6.5625 12.0312C6.5625 12.0312 6.92781 10.2083 7.29167 10.2083C7.65552 10.2083 8.07188 12.0312 8.38542 12.0312C8.69896 12.0312 8.77552 11.3021 9.11458 11.3021C9.45365 11.3021 9.52583 12.0312 9.84375 12.0312C10.1617 12.0312 10.9375 11.3021 10.9375 11.3021M6.5625 5.1333H10.9375M6.5625 6.74476H10.9375M6.5625 8.38538H10.9375" stroke="#6B39F4" stroke-linecap="round" stroke-linejoin="round"/>
<path d="M11.6666 3.28125H5.83325C5.22919 3.28125 4.7395 3.77094 4.7395 4.375V13.125C4.7395 13.7291 5.22919 14.2188 5.83325 14.2188H11.6666C12.2706 14.2188 12.7603 13.7291 12.7603 13.125V4.375C12.7603 3.77094 12.2706 3.28125 11.6666 3.28125Z" stroke="#6B39F4"/>
</svg>
