<svg width="30" height="30" viewBox="0 0 30 30" fill="none" xmlns="http://www.w3.org/2000/svg">
<path d="M23.75 15C23.75 15.3315 23.6183 15.6495 23.3839 15.8839C23.1495 16.1183 22.8315 16.25 22.5 16.25C22.1685 16.25 21.8505 16.1183 21.6161 15.8839C21.3817 15.6495 21.25 15.3315 21.25 15C21.25 14.6685 21.3817 14.3505 21.6161 14.1161C21.8505 13.8817 22.1685 13.75 22.5 13.75C22.8315 13.75 23.1495 13.8817 23.3839 14.1161C23.6183 14.3505 23.75 14.6685 23.75 15Z" fill="black"/>
<path fill-rule="evenodd" clip-rule="evenodd" d="M12.43 4.0625H16.32C18.6175 4.0625 20.4375 4.0625 21.8612 4.25375C23.3263 4.45125 24.5125 4.86625 25.4487 5.80125C26.6037 6.9575 26.9725 8.505 27.1062 10.5138C27.8275 10.83 28.3725 11.5012 28.4313 12.3512C28.4375 12.4275 28.4375 12.5088 28.4375 12.5838V17.4162C28.4375 17.4912 28.4375 17.5725 28.4325 17.6475C28.3725 18.4975 27.8275 19.17 27.1062 19.4875C26.9725 21.495 26.6037 23.0425 25.4487 24.1987C24.5125 25.1337 23.3263 25.5487 21.8612 25.7463C20.4363 25.9375 18.6175 25.9375 16.32 25.9375H12.43C10.1325 25.9375 8.3125 25.9375 6.88875 25.7463C5.42375 25.5487 4.2375 25.1337 3.30125 24.1987C2.36625 23.2625 1.95125 22.0763 1.75375 20.6112C1.5625 19.1863 1.5625 17.3675 1.5625 15.07V14.93C1.5625 12.6325 1.5625 10.8125 1.75375 9.38875C1.95125 7.92375 2.36625 6.7375 3.30125 5.80125C4.2375 4.86625 5.42375 4.45125 6.88875 4.25375C8.31375 4.0625 10.1325 4.0625 12.43 4.0625ZM25.21 19.6875H22.7875C20.1062 19.6875 17.8112 17.6525 17.8112 15C17.8112 12.3475 20.1063 10.3125 22.7863 10.3125H25.2087C25.0662 8.63625 24.745 7.75 24.1213 7.1275C23.5925 6.59875 22.8675 6.28125 21.61 6.1125C20.3263 5.94 18.6325 5.9375 16.2487 5.9375H12.4987C10.115 5.9375 8.4225 5.94 7.13625 6.1125C5.88 6.28125 5.155 6.59875 4.62625 7.1275C4.0975 7.65625 3.78 8.38125 3.61125 9.63875C3.43875 10.9237 3.43625 12.6163 3.43625 15C3.43625 17.3837 3.43875 19.0775 3.61125 20.3625C3.78 21.6188 4.0975 22.3438 4.62625 22.8725C5.155 23.4013 5.88 23.7188 7.1375 23.8875C8.4225 24.06 10.115 24.0625 12.4987 24.0625H16.2487C18.6325 24.0625 20.3263 24.06 21.6112 23.8875C22.8675 23.7188 23.5925 23.4013 24.1213 22.8725C24.745 22.25 25.0675 21.365 25.21 19.6875ZM6.5625 10C6.5625 9.75136 6.66127 9.5129 6.83709 9.33709C7.0129 9.16127 7.25136 9.0625 7.5 9.0625H12.5C12.7486 9.0625 12.9871 9.16127 13.1629 9.33709C13.3387 9.5129 13.4375 9.75136 13.4375 10C13.4375 10.2486 13.3387 10.4871 13.1629 10.6629C12.9871 10.8387 12.7486 10.9375 12.5 10.9375H7.5C7.25136 10.9375 7.0129 10.8387 6.83709 10.6629C6.66127 10.4871 6.5625 10.2486 6.5625 10ZM26.155 12.1875H22.7875C21.0075 12.1875 19.6862 13.5112 19.6862 15C19.6862 16.4888 21.0075 17.8125 22.7863 17.8125H26.1838C26.4412 17.7963 26.5525 17.6225 26.5613 17.5175V12.4825C26.5525 12.3775 26.4412 12.2038 26.1838 12.1888L26.155 12.1875Z" fill="black"/>
</svg>
